<svg width="20" height="20" viewBox="0 0 20 20" fill="none" xmlns="http://www.w3.org/2000/svg">
<g id="Google" clip-path="url(#clip0_882_8701)">
<g id="Group">
<path id="Vector" d="M2.55268 6.25866C3.24602 4.87803 4.30966 3.71742 5.62471 2.90655C6.93976 2.09568 8.4544 1.66651 9.99935 1.66699C12.2452 1.66699 14.1319 2.49199 15.5744 3.83783L13.1852 6.22783C12.321 5.40199 11.2227 4.98116 9.99935 4.98116C7.82852 4.98116 5.99102 6.44783 5.33685 8.41699C5.17018 8.91699 5.07518 9.45033 5.07518 10.0003C5.07518 10.5503 5.17018 11.0837 5.33685 11.5837C5.99185 13.5537 7.82852 15.0195 9.99935 15.0195C11.1202 15.0195 12.0744 14.7237 12.821 14.2237C13.2539 13.9387 13.6245 13.5688 13.9104 13.1366C14.1962 12.7043 14.3915 12.2185 14.4844 11.7087L9.99935 11.7087L9.99935 8.48533L17.8477 8.48533C17.946 9.03033 17.9993 9.59866 17.9993 10.1895C17.9993 12.7278 17.091 14.8645 15.5143 16.3145C14.136 17.5878 12.2494 18.3337 9.99935 18.3337C8.90488 18.3341 7.82105 18.1188 6.8098 17.7002C5.79856 17.2816 4.87972 16.6678 4.10582 15.8939C3.33191 15.12 2.7181 14.2011 2.29946 13.1899C1.88083 12.1786 1.66558 11.0948 1.66602 10.0003C1.66602 8.65533 1.98768 7.38366 2.55268 6.25866Z" fill="#565E6D"/>
</g>
</g>
<defs>
<clipPath id="clip0_882_8701">
<rect width="20" height="20" fill="white"/>
</clipPath>
</defs>
</svg>
